<svg xmlns="http://www.w3.org/2000/svg" viewBox="0 0 507.5 507.5"><defs><style>.cls-1{fill:#3296d4;}.cls-2{fill:none;stroke:#3296d4;stroke-miterlimit:10;stroke-width:4px;}</style></defs><g id="레이어_2" data-name="레이어 2"><g id="Layer_1" data-name="Layer 1"><path class="cls-1" d="M79.3,313a370,370,0,0,1,8.79-47.5l-6.39.84,13.22,28.74c1.3,2.83,5.64,1.87,6.4-.84a90.28,90.28,0,0,1,14.54-29.71l-6.39-.83A232.94,232.94,0,0,1,111.72,313c-.27,4.5,6.73,4.49,7,0a241.21,241.21,0,0,0-2.5-51.15c-.52-3.33-4.84-2.95-6.4-.84a95.6,95.6,0,0,0-15.25,31.38l6.39-.83L87.74,262.8c-1.28-2.79-5.7-1.92-6.4.83a384.23,384.23,0,0,0-9,49.36c-.52,4.46,6.49,4.43,7,0Z"/><path class="cls-1" d="M129.62,290.47c2.75,12.51,20.21,5.89,24.07-2.37,2.13-4.55-.59-9.75-5-11.67-5.65-2.47-12,.74-15.94,4.91-7.79,8.34-7.91,21.82,1.4,29.1,9.16,7.16,22.12,3,26.13-7.65,1.59-4.22-5.17-6-6.75-1.86-4.31,11.43-19.86,5.12-19.64-5.51.1-4.84,3.34-10.54,8.09-12.21,2.19-.77,3.38-1.21,4.06,1.2s-.61,2.8-2.4,4.06-6.47,3.93-7.3.14c-1-4.4-7.71-2.54-6.75,1.86Z"/><path class="cls-1" d="M162.56,287.37c-2.37,6.36,4.68,10.11,10,10.7,5.95.67,12.68-1.19,16.24-6.32,6.9-10-3.1-24.68-14.8-18-11.08,6.32-12.56,24-3.1,32.33,8.31,7.34,23.57,3.37,25.72-8,.83-4.4-5.92-6.29-6.75-1.86-1,5.07-6.58,7.78-11.42,6.26-6.07-1.91-7.69-9.62-6.33-15.08.79-3.19,3.11-7.24,6.55-8.15s5.61,2.12,5.43,5.31c-.16,3-2.3,4.95-4.95,5.93-.79.3-10.84,1.52-9.8-1.28,1.58-4.23-5.18-6.05-6.75-1.86Z"/><path class="cls-1" d="M205.27,290.48a264.91,264.91,0,0,1,33.25-8c4.43-.76,2.55-7.5-1.86-6.75a264.91,264.91,0,0,0-33.25,8c-4.3,1.32-2.46,8.08,1.86,6.75Z"/><path class="cls-1" d="M223.53,252.53l-5.76,57.4c-.25,2.45,2.42,3.74,4.43,3.37L251.14,308c4.43-.82,2.55-7.57-1.86-6.75l-28.94,5.35,4.43,3.38,5.76-57.4c.45-4.48-6.55-4.45-7,0Z"/><path class="cls-1" d="M99.36,346.34l-1.24-1.24a3.62,3.62,0,0,0-2.47-1,2.58,2.58,0,0,0-1.35.3,2.61,2.61,0,0,0-1.13.72,3.5,3.5,0,0,0-1,2.48,3.64,3.64,0,0,0,1,2.47l1.24,1.24a3.6,3.6,0,0,0,2.47,1,2.62,2.62,0,0,0,1.35-.3,2.67,2.67,0,0,0,1.13-.72,3.56,3.56,0,0,0,1-2.48,3.62,3.62,0,0,0-1-2.47Z"/><path class="cls-1" d="M92.15,362.4v23.46c0,4.51,7,4.51,7,0V362.4c0-4.51-7-4.52-7,0Z"/><path class="cls-1" d="M113.38,353.74l-.51,22.92,6.88-.93c-1.58-4.75.22-9,2.66-13,1.41-2.35,5.56-10.09,8.8-6.8,2.24,2.27,1.93,7.9,2,10.65a91.43,91.43,0,0,1-.51,13.13c-.48,4.47,6.53,4.44,7,0,.85-8.06,3.45-31.43-9.87-31.92-5.94-.21-9.73,5.54-12.58,9.93-3.89,6-6.66,12.79-4.29,19.9,1.23,3.7,6.78,3.12,6.87-.93l.51-22.92c.1-4.51-6.9-4.51-7,0Z"/><path class="cls-1" d="M167.26,365.74l32.18-2.91c4.45-.4,4.5-7.41,0-7l-32.18,2.91c-4.45.4-4.49,7.41,0,7Z"/><path class="cls-1" d="M182,337.65a140.4,140.4,0,0,0,1.64,45.45c.88,4.42,7.62,2.55,6.75-1.86A134.58,134.58,0,0,1,189,337.65c.57-4.46-6.43-4.42-7,0Z"/><path class="cls-1" d="M201.33,339.34a129.58,129.58,0,0,1,2.48,33.4c-.21,3.92,6,4.79,6.87.93s6-14.62,11.56-11.71c4.51,2.37,3,11.89,3.54,16.17.6,4.44,7.34,2.55,6.75-1.86-1-7.62.29-21.1-10.92-21.79-9-.55-16,9.57-17.68,17.33l6.88.93a136.44,136.44,0,0,0-2.73-35.26c-.92-4.41-7.67-2.54-6.75,1.86Z"/><path class="cls-1" d="M237.62,364.36a10.4,10.4,0,0,0,10.46,7c5.58-.18,9.72-4.7,11.85-9.48,2-4.51,2.5-10-2.06-13.13a10.65,10.65,0,0,0-12.86.87c-8.68,7.24-8.66,23.47,0,30.57,8.54,7,23.27,2,22-10.18-.45-4.43-7.45-4.48-7,0,.57,5.54-5.07,8.14-9.58,5.5-5-2.94-5.61-9.55-4.26-14.63.55-2,1.41-4.31,3.08-5.7,2.29-1.9,5-1.36,4.93,2-.1,3.56-7.76,11.11-9.87,5.32-1.54-4.2-8.3-2.38-6.75,1.86Z"/><path class="cls-1" d="M61.18,430.45A294.32,294.32,0,0,1,63.5,461.7L70,459.94c-2.67-6.1-1.66-20.36,6.94-21.82l-2.7-.35c3.1,1.33,4.06,7.41,4.54,10.37a31,31,0,0,1-.54,11.74H85a25.91,25.91,0,0,1-.43-13.81c.94-3.74,3.61-10.79,7.56-12.41,6.64-2.72,6.44,25.4,6,29.3-.47,4.47,6.53,4.44,7,0,.88-8.42,1.8-40.09-13.65-36.56-6.14,1.4-10.47,8.77-12.55,14.2a32.93,32.93,0,0,0-.72,21.14c.94,3.18,6,3.48,6.75,0a37.92,37.92,0,0,0-1.28-22.06c-2-5.32-5.58-10.62-11.81-7.22-10.57,5.76-12.29,21.07-8,31,1.43,3.27,6.59,1.5,6.52-1.77a294.32,294.32,0,0,0-2.32-31.25c-.57-4.41-7.58-4.46-7,0Z"/><path class="cls-1" d="M119.47,428.1l-.13-1.17a3.87,3.87,0,0,0-1-2.47,2.79,2.79,0,0,0-1.13-.73,2.73,2.73,0,0,0-1.35-.3,3.52,3.52,0,0,0-2.47,1l-.55.71a3.4,3.4,0,0,0-.48,1.76l.13,1.17a2.57,2.57,0,0,0,.3,1.34,2.61,2.61,0,0,0,.72,1.13,2.67,2.67,0,0,0,1.13.72,2.74,2.74,0,0,0,1.35.31,3.57,3.57,0,0,0,2.47-1l.55-.71a3.4,3.4,0,0,0,.48-1.76Z"/><path class="cls-1" d="M114.43,437.5q.36,14.14,1.77,28.21c.45,4.44,7.45,4.48,7,0q-1.41-14.07-1.77-28.21c-.12-4.49-7.12-4.51-7,0Z"/><path class="cls-1" d="M162.75,435.14l0-3.43a3.52,3.52,0,0,0-3.5-3.5,30,30,0,0,0-17.37,6.45c-4,3.26-8.15,8.74-4.53,13.83,3.08,4.33,10.34,7.89,15.43,8.94,5.32,1.1,11-.35,14.46-4.67,2.78-3.48-2.14-8.47-4.95-4.95C158,453.28,149.57,450,145.14,446c-6.23-5.57,10.18-10.57,14.15-10.81l-3.5-3.5,0,3.43c-.06,4.51,6.94,4.51,7,0Z"/><path class="cls-1" d="M156.51,409.26A386.92,386.92,0,0,0,159.56,461c.56,4.41,7.56,4.46,7,0a386.92,386.92,0,0,1-3.05-51.71c0-4.5-7-4.51-7,0Z"/><path class="cls-1" d="M208.37,429.32c-7.44,1-15.09-.68-22.2,2.38-5.23,2.25-9.57,6.83-9.68,12.81-.29,15.67,17.7,18.26,29.44,17.32,4.46-.36,4.5-7.36,0-7-4.8.38-9.93.85-14.57-.76-4.35-1.51-9.32-6.19-7.52-11.32,3.14-8.95,19.38-5.72,26.39-6.68,4.45-.62,2.55-7.36-1.86-6.75Z"/><path class="cls-1" d="M207.17,408.07q-.43,24.14,1.33,48.22c.32,4.46,7.33,4.5,7,0q-1.77-24.07-1.33-48.22c.08-4.51-6.92-4.51-7,0Z"/><path class="cls-1" d="M243.4,413.48l-1.26-2.83c-1.51-3.4-6.37-1.39-6.52,1.76q-1.12,24.13-.57,48.27c.1,4.5,7.1,4.52,7,0l-.07-3.19c-.1-4.5-7.1-4.52-7,0l.07,3.19h7q-.56-24.14.57-48.27l-6.52,1.77,1.26,2.84c1.83,4.1,7.86.55,6-3.54Z"/><path class="cls-1" d="M261.79,442.39c7.22,5.52,18.43,3.67,23.8-3.6,2.5-3.4,4.15-8.72.34-11.86-3.5-2.9-9.19-1.92-12.88.11-8.33,4.59-12.05,15.95-6.66,24.1,5.18,7.83,15.88,10,24,5.83,4-2.06.47-8.11-3.53-6-9.67,5-21.09-6.06-13.45-15.25,1.28-1.54,3.91-3.7,6.1-3.51,1.86.16,1.78-.15,1,1.62a7.27,7.27,0,0,1-2,2.44,10.49,10.49,0,0,1-13.14.11c-3.58-2.73-7.07,3.34-3.54,6.05Z"/><path class="cls-1" d="M363.48,94.34c3.26-9.5,22-10.15,28.31-4,3.63,3.55-1.25,7.11-4.42,9a31.17,31.17,0,0,1-17.14,4.36,7.66,7.66,0,0,0-7.29,5.52,105,105,0,0,1-6.76,16.56c-4.38,8.58,8.59,16.12,13,7.5a128.76,128.76,0,0,0,8.24-20.1l-7.29,5.52c11.05.24,22.53-3.29,30.81-10.82,8-7.32,10-18.91,2.34-27.27C388.92,64.94,356.07,69.8,349,90.38c-3.15,9.16,11.35,13.05,14.47,4Z"/><path class="cls-1" d="M359.11,146.69c.47-4.57-3.67-9.85-8.46-9.67a10.41,10.41,0,0,0-8.35,5.19c-2.61,4.51-2.25,10.82,1.49,14.63a9.48,9.48,0,0,0,9.38,2.83,11.28,11.28,0,0,0,7.56-7.42c2.25-6.77-3.74-15-11.09-14.08a8.27,8.27,0,0,0-5.39,2.23,7.66,7.66,0,0,0-2.16,5.22c.13,3.63,3.28,8.06,7.44,7.56.79-.06.57-.14-.65-.25.75.22.56.14-.58-.25a4,4,0,0,1-2-3.14,4.08,4.08,0,0,1,1.19-3.45c-.57.56-.39.43.54-.38q1.83-.65.63-.39h3.93a3.35,3.35,0,0,1,1.68.89c.58.47.67.54.28.19.16.19,1.15,1.7.56.65-.42-.76.65,2,.38.83s.13,2,.1.71c0-1.15-.38,1.62-.15.8.33-1.15-.26.48-.38.72.39-.79.82-.66-.45.51l-1.07.79c.66-.39.33-.28-1,.35l-5.69-.75a6.19,6.19,0,0,1-2.74-4.44c-.39,3.91,3.66,7.7,7.45,7.56,4.38-.17,7.13-3.26,7.55-7.45Z"/><path class="cls-1" d="M451.66,76.62c-8.68-15.16-19.3-27.63-37.78-36C384,27.13,331.92,33,304.48,63.35c-25.15,27.78-26.36,65-24.75,105.09C281,200.27,284,219,291.23,246.93c46.48-20.09,69.63-28.81,115.07-51.17,4-2,20.77-11,25.43-15C448.5,166.48,455,147.9,458.9,132.81,464,113.43,460.7,92.41,451.66,76.62ZM370.27,179.68a62.43,62.43,0,1,1,62.43-62.43A62.43,62.43,0,0,1,370.27,179.68Z"/><rect class="cls-2" x="2" y="2" width="503.5" height="503.5"/></g></g></svg>