<?xml version="1.0" encoding="utf-8"?>
<!-- Generator: Adobe Illustrator 24.2.3, SVG Export Plug-In . SVG Version: 6.00 Build 0)  -->
<svg version="1.1" id="레이어_1" xmlns="http://www.w3.org/2000/svg" xmlns:xlink="http://www.w3.org/1999/xlink" x="0px"
	 y="0px" viewBox="0 0 507.5 507.5" style="enable-background:new 0 0 507.5 507.5;" xml:space="preserve">
<style type="text/css">
	.st0{fill:#3296D4;}
</style>
<g id="레이어_2_1_">
	<g id="Layer_1">
		<path class="st0" d="M55.3,323.7c2.1-17.9,5.4-35.7,9.8-53.2l-7.2,0.9l14.8,32.2c1.5,3.2,6.3,2.1,7.2-0.9
			c3.3-12,8.9-23.3,16.3-33.3l-7.2-0.9c2.8,18.3,3.6,36.8,2.5,55.2c-0.3,5,7.5,5,7.8,0c1.1-19.1,0.2-38.4-2.8-57.3
			c-0.6-3.7-5.4-3.3-7.2-0.9c-7.8,10.6-13.6,22.5-17.1,35.2l7.2-0.9l-14.8-32.2c-1.4-3.1-6.4-2.2-7.2,0.9
			c-4.6,18.2-7.9,36.7-10.1,55.3C46.9,328.7,54.8,328.6,55.3,323.7L55.3,323.7z"/>
		<path class="st0" d="M111.7,298.4c3.1,14,22.6,6.6,27-2.7c2.4-5.1-0.7-10.9-5.6-13.1c-6.3-2.8-13.4,0.8-17.9,5.5
			c-8.7,9.3-8.9,24.4,1.6,32.6c10.3,8,24.8,3.4,29.3-8.6c1.8-4.7-5.8-6.7-7.6-2.1c-4.8,12.8-22.2,5.7-22-6.2
			c0.1-5.4,3.7-11.8,9.1-13.7c2.5-0.9,3.8-1.4,4.5,1.3c0.8,2.7-0.7,3.1-2.7,4.5c-2,1.4-7.2,4.4-8.2,0.2
			C118.1,291.4,110.5,293.5,111.7,298.4L111.7,298.4z"/>
		<path class="st0" d="M148.6,295c-2.7,7.1,5.2,11.3,11.2,12c6.7,0.8,14.2-1.3,18.2-7.1c7.7-11.2-3.5-27.6-16.6-20.2
			c-12.4,7.1-14.1,26.9-3.5,36.2c9.3,8.2,26.4,3.8,28.8-9c0.9-4.9-6.6-7-7.6-2.1c-1.1,5.7-7.4,8.7-12.8,7
			c-6.8-2.1-8.6-10.8-7.1-16.9c0.9-3.6,3.5-8.1,7.3-9.1s6.3,2.4,6.1,5.9c-0.2,3.4-2.6,5.5-5.5,6.6c-0.9,0.3-12.1,1.7-11-1.4
			C157.9,292.3,150.4,290.3,148.6,295L148.6,295z"/>
		<path class="st0" d="M196.4,298.5c12.2-3.8,24.7-6.8,37.2-9c5-0.9,2.9-8.4-2.1-7.6c-12.6,2.2-25,5.2-37.2,9
			C189.5,292.4,191.6,299.9,196.4,298.5z"/>
		<path class="st0" d="M216.9,255.9l-6.5,64.3c-0.3,2.7,2.7,4.2,5,3.8l32.4-5.9c5-0.9,2.9-8.5-2.1-7.6l-32.4,6l5,3.8l6.5-64.3
			C225.2,251,217.4,251,216.9,255.9L216.9,255.9z"/>
		<path class="st0" d="M77.8,361l-1.4-1.4c-0.7-0.7-1.7-1.1-2.8-1.1c-0.5,0-1,0.1-1.5,0.3c-0.5,0.2-0.9,0.4-1.3,0.8
			c-0.7,0.7-1.1,1.7-1.1,2.8c0,1,0.4,2,1.1,2.8l1.4,1.4c0.7,0.7,1.7,1.1,2.8,1.1c0.5,0,1-0.1,1.5-0.3c0.5-0.2,0.9-0.4,1.3-0.8
			c0.7-0.7,1.1-1.7,1.1-2.8C78.9,362.8,78.5,361.8,77.8,361z"/>
		<path class="st0" d="M69.7,379v26.3c0,5.1,7.8,5.1,7.8,0V379C77.5,374,69.7,374,69.7,379z"/>
		<path class="st0" d="M93.5,369.3L92.9,395l7.7-1c-1.8-5.3,0.2-10.1,3-14.6c1.6-2.6,6.2-11.3,9.9-7.6c2.5,2.5,2.2,8.8,2.2,11.9
			c0.2,4.9,0,9.8-0.6,14.7c-0.5,5,7.3,5,7.8,0c1-9,3.9-35.2-11.1-35.8c-6.7-0.2-10.9,6.2-14.1,11.1c-4.4,6.7-7.5,14.3-4.8,22.3
			c1.4,4.1,7.6,3.5,7.7-1l0.6-25.7C101.4,364.3,93.5,364.3,93.5,369.3L93.5,369.3z"/>
		<path class="st0" d="M153.8,382.8l36-3.3c5-0.4,5-8.3,0-7.8l-36,3.3C148.8,375.4,148.8,383.2,153.8,382.8L153.8,382.8z"/>
		<path class="st0" d="M170.3,351.3c-2.2,17-1.5,34.2,1.8,50.9c1,5,8.5,2.9,7.6-2.1c-3.2-16.1-3.7-32.6-1.6-48.8
			C178.8,346.3,171,346.3,170.3,351.3z"/>
		<path class="st0" d="M192,353.2c2.5,12.3,3.5,24.9,2.8,37.4c-0.2,4.4,6.7,5.4,7.7,1c1-4.3,6.7-16.4,12.9-13.1
			c5.1,2.7,3.4,13.3,4,18.1c0.7,5,8.2,2.9,7.6-2.1c-1.1-8.5,0.3-23.6-12.2-24.4c-10.1-0.6-17.9,10.7-19.8,19.4l7.7,1
			c0.7-13.2-0.3-26.5-3.1-39.5C198.5,346.2,191,348.3,192,353.2L192,353.2z"/>
		<path class="st0" d="M232.6,381.2c1.7,4.9,6.5,8.2,11.7,7.8c6.3-0.2,10.9-5.3,13.3-10.6c2.2-5.1,2.8-11.2-2.3-14.7
			c-4.5-2.9-10.4-2.5-14.4,1c-9.7,8.1-9.7,26.3,0,34.2c9.6,7.8,26.1,2.2,24.6-11.4c-0.5-5-8.3-5-7.8,0c0.6,6.2-5.7,9.1-10.7,6.2
			c-5.6-3.3-6.3-10.7-4.8-16.4c0.6-2.2,1.6-4.8,3.5-6.4c2.6-2.1,5.6-1.5,5.5,2.2c-0.1,4-8.7,12.4-11.1,6
			C238.4,374.4,230.8,376.5,232.6,381.2L232.6,381.2z"/>
		<path class="st0" d="M35,455.3c1.5,11.6,2.4,23.3,2.6,35l7.3-2c-3-6.8-1.9-22.8,7.8-24.4l-3-0.4c3.5,1.5,4.5,8.3,5.1,11.6
			c0.6,4.4,0.4,8.8-0.6,13.2h7.6c-1.6-5-1.7-10.4-0.5-15.5c1.1-4.2,4-12.1,8.5-13.9c7.4-3,7.2,28.5,6.7,32.8c-0.5,5,7.3,5,7.8,0
			c1-9.4,2-44.9-15.3-41c-6.9,1.6-11.7,9.8-14.1,15.9c-2.9,7.6-3.1,15.9-0.8,23.7c1.1,3.6,6.7,3.9,7.6,0c2-8.2,1.5-16.8-1.4-24.7
			c-2.2-6-6.3-11.9-13.2-8.1c-11.8,6.5-13.8,23.6-9,34.7c1.6,3.7,7.4,1.7,7.3-2c-0.2-11.7-1.1-23.4-2.6-35c-0.6-4.9-8.5-5-7.8,0
			L35,455.3z"/>
		<path class="st0" d="M100.3,452.6l-0.1-1.3c0-1-0.4-2-1.1-2.8c-0.3-0.4-0.8-0.7-1.3-0.8c-0.5-0.2-1-0.4-1.5-0.3
			c-1,0-2,0.4-2.8,1.1l-0.6,0.8c-0.4,0.6-0.5,1.3-0.5,2l0.1,1.3c0,0.5,0.1,1,0.3,1.5c0.2,0.5,0.4,0.9,0.8,1.3
			c0.3,0.4,0.8,0.6,1.3,0.8c0.5,0.2,1,0.4,1.5,0.3c1,0,2-0.4,2.8-1.1l0.6-0.8C100.1,454,100.3,453.3,100.3,452.6L100.3,452.6z"/>
		<path class="st0" d="M94.6,463.2c0.3,10.6,0.9,21.1,2,31.6c0.5,5,8.3,5,7.8,0c-1.1-10.5-1.7-21-2-31.6
			C102.3,458.1,94.5,458.1,94.6,463.2z"/>
		<path class="st0" d="M148.8,460.5v-3.8c0-2.2-1.8-3.9-3.9-3.9c-7.1,0.3-13.9,2.8-19.5,7.2c-4.5,3.7-9.1,9.8-5.1,15.5
			c3.5,4.9,11.6,8.8,17.3,10c6,1.2,12.3-0.4,16.2-5.2c3.1-3.9-2.4-9.5-5.5-5.5c-4.8,6.1-14.2,2.5-19.2-2c-7-6.2,11.4-11.8,15.9-12.1
			l-3.9-3.9v3.8C140.9,465.5,148.7,465.5,148.8,460.5L148.8,460.5z"/>
		<path class="st0" d="M141.8,431.5c-0.2,19.4,1,38.7,3.4,58c0.6,4.9,8.5,5,7.8,0c-2.4-19.2-3.6-38.6-3.4-57.9
			C149.6,426.5,141.8,426.5,141.8,431.5L141.8,431.5z"/>
		<path class="st0" d="M199.9,454c-8.3,1.1-16.9-0.8-24.9,2.7c-5.9,2.5-10.7,7.7-10.8,14.3c-0.3,17.6,19.8,20.5,33,19.4
			c5-0.4,5-8.2,0-7.8c-5.4,0.4-11.1,1-16.3-0.9c-4.9-1.7-10.4-6.9-8.4-12.7c3.5-10,21.7-6.4,29.6-7.5
			C206.9,460.9,204.8,453.3,199.9,454L199.9,454z"/>
		<path class="st0" d="M198.5,430.2c-0.3,18,0.2,36,1.5,54c0.4,5,8.2,5,7.8,0c-1.3-18-1.8-36-1.5-54
			C206.5,425.1,198.6,425.1,198.5,430.2z"/>
		<path class="st0" d="M239.1,436.2l-1.4-3.2c-1.7-3.8-7.1-1.6-7.3,2c-0.8,18-1,36-0.6,54.1c0.1,5,8,5.1,7.8,0l-0.1-3.6
			c-0.1-5-8-5.1-7.8,0l0.1,3.6h7.8c-0.4-18-0.2-36.1,0.6-54.1l-7.3,2l1.4,3.2C234.4,444.8,241.2,440.8,239.1,436.2L239.1,436.2z"/>
		<path class="st0" d="M259.7,468.6c8.1,6.2,20.6,4.1,26.7-4c2.8-3.8,4.6-9.8,0.4-13.3c-3.9-3.2-10.3-2.2-14.4,0.1
			c-9.3,5.1-13.5,17.9-7.5,27c5.8,8.8,17.8,11.2,26.9,6.5c4.5-2.3,0.5-9.1-4-6.7c-10.8,5.6-23.6-6.8-15.1-17.1
			c1.4-1.7,4.4-4.1,6.8-3.9c2.1,0.2,2-0.2,1.1,1.8c-0.5,1.1-1.3,2-2.2,2.7c-4.3,3.5-10.4,3.5-14.7,0.1
			C259.7,458.8,255.8,465.6,259.7,468.6L259.7,468.6z"/>
		<path class="st0" d="M373.6,78.7c3.7-10.6,24.6-11.4,31.7-4.5c4.1,4-1.4,8-5,10.1c-5.8,3.4-12.5,5.1-19.2,4.9
			c-3.8,0-7.1,2.5-8.2,6.2c-2,6.4-4.5,12.6-7.6,18.6c-4.9,9.6,9.6,18.1,14.6,8.4c3.7-7.2,6.8-14.8,9.2-22.5l-8.2,6.2
			c12.4,0.3,25.2-3.7,34.5-12.1c9-8.2,11.2-21.2,2.6-30.5c-16.1-17.6-52.9-12.1-60.8,10.9C353.9,84.6,370.1,88.9,373.6,78.7
			L373.6,78.7z"/>
		<path class="st0" d="M368.7,137.4c0.5-5.1-4.1-11-9.5-10.8c-3.9,0.3-7.4,2.4-9.4,5.8c-2.9,5.1-2.5,12.1,1.7,16.4
			c2.6,2.9,6.7,4.1,10.5,3.2c4-1.2,7.2-4.3,8.5-8.3c2.5-7.6-4.2-16.8-12.4-15.8c-2.2,0.1-4.4,1-6,2.5c-1.5,1.6-2.4,3.7-2.4,5.8
			c0.1,4.1,3.7,9,8.3,8.5c0.9-0.1,0.6-0.2-0.7-0.3c0.8,0.2,0.6,0.2-0.6-0.3c-1.3-0.7-2.1-2-2.2-3.5c-0.2-1.4,0.3-2.9,1.3-3.9
			c-0.6,0.6-0.4,0.5,0.6-0.4c1.4-0.5,1.6-0.6,0.7-0.4h4.4c0.7,0.1,1.4,0.5,1.9,1c0.6,0.5,0.8,0.6,0.3,0.2c0.2,0.2,1.3,1.9,0.6,0.7
			c-0.5-0.9,0.7,2.2,0.4,0.9c-0.3-1.3,0.1,2.2,0.1,0.8c0-1.3-0.4,1.8-0.2,0.9c0.4-1.3-0.3,0.5-0.4,0.8c0.4-0.9,0.9-0.7-0.5,0.6
			l-1.2,0.9c0.7-0.4,0.4-0.3-1.1,0.4l-6.4-0.8c-1.7-1.1-2.8-2.9-3.1-5c-0.4,4.4,4.1,8.6,8.3,8.5
			C365.2,145.5,368.3,142.1,368.7,137.4L368.7,137.4z"/>
		<path class="st0" d="M472.4,58.9c-9.7-17-21.6-31-42.3-40.3C396.6,3.4,338.3,10,307.5,44c-28.2,31.1-29.5,72.8-27.7,117.7
			c1.4,35.7,4.8,56.6,12.9,87.9c52.1-22.5,78-32.3,128.9-57.3c4.5-2.2,23.3-12.3,28.5-16.8c18.8-16,26.1-36.8,30.4-53.7
			C486.2,100.1,482.5,76.6,472.4,58.9z M381.2,174.3c-38.6,0-69.9-31.3-69.9-69.9c0-38.6,31.3-69.9,69.9-69.9s69.9,31.3,69.9,69.9v0
			C451.2,143,419.9,174.3,381.2,174.3z"/>
	</g>
</g>
</svg>
